<?xml version="1.0" encoding="UTF-8"?>
<svg width="40px" height="40px" viewBox="0 0 40 40" version="1.1" xmlns="http://www.w3.org/2000/svg" xmlns:xlink="http://www.w3.org/1999/xlink">
    <!-- Generator: Sketch 53.2 (72643) - https://sketchapp.com -->
    <title>master</title>
    <desc>Created with Sketch.</desc>
    <g id="master" stroke="none" stroke-width="1" fill="none" fill-rule="evenodd">
        <path d="M20.5,14.5381013 C18.9197191,15.9131176 17.9207829,17.9390397 17.9207829,20.1982759 L17.9207829,20.6600985 C17.9207829,22.9193347 18.9197191,24.9452568 20.5,26.3202731 C19.1829575,27.4662434 17.4621166,28.1600985 15.5792171,28.1600985 L15.1039143,28.1600985 C10.9617786,28.1600985 7.60391426,24.8022341 7.60391426,20.6600985 L7.60391426,20.1982759 C7.60391426,16.0561402 10.9617786,12.6982759 15.1039143,12.6982759 L15.5792171,12.6982759 C17.4621166,12.6982759 19.1829575,13.392131 20.5,14.5381013 Z" id="Combined-Shape" fill="#EB001C"></path>
        <path d="M20.5,14.5381013 C22.0802809,15.9131176 23.0792171,17.9390397 23.0792171,20.1982759 L23.0792171,20.6600985 C23.0792171,22.9193347 22.0802809,24.9452568 20.5,26.3202731 C18.9197191,24.9452568 17.9207829,22.9193347 17.9207829,20.6600985 L17.9207829,20.1982759 C17.9207829,17.9390397 18.9197191,15.9131176 20.5,14.5381013 Z" id="Combined-Shape" fill="#FF5E13"></path>
        <path d="M33.3960857,14.5381013 C31.8158049,15.9131176 30.8168686,17.9390397 30.8168686,20.1982759 L30.8168686,20.6600985 C30.8168686,22.9193347 31.8158049,24.9452568 33.3960857,26.3202731 C32.0790433,27.4662434 30.3582023,28.1600985 28.4753029,28.1600985 L28,28.1600985 C23.8578644,28.1600985 20.5,24.8022341 20.5,20.6600985 L20.5,20.1982759 C20.5,16.0561402 23.8578644,12.6982759 28,12.6982759 L28.4753029,12.6982759 C30.3582023,12.6982759 32.0790433,13.392131 33.3960857,14.5381013 Z" id="Combined-Shape-Copy" fill="#F79F2E" transform="translate(26.948043, 20.429187) scale(-1, 1) translate(-26.948043, -20.429187) "></path>
    </g>
</svg>